<svg width="96" height="52" viewBox="0 0 96 52" fill="none" xmlns="http://www.w3.org/2000/svg">
<path fill-rule="evenodd" clip-rule="evenodd" d="M50.9131 11.0537C50.6655 11.0537 50.4178 11.0537 50.1702 11.0667L49.8704 0.285645H51.995L51.6822 11.0667C51.5518 11.0667 51.4248 11.0635 51.2977 11.0602C51.1706 11.057 51.0435 11.0537 50.9131 11.0537ZM50.5415 40.9396L50.5419 40.9396C50.6656 40.9429 50.7893 40.9461 50.913 40.9461C51.1737 40.9461 51.4213 40.9461 51.669 40.9331L51.9818 51.7142H49.8572L50.17 40.9331C50.2938 40.9331 50.4177 40.9363 50.5415 40.9396ZM35.982 25.6223L35.982 25.6219C35.9852 25.4948 35.9885 25.3677 35.9885 25.2373L25.2088 24.9244V27.0494L35.9885 26.7365C35.9885 26.6215 35.9853 26.5034 35.9821 26.3837V26.3836V26.3836V26.3835V26.3835V26.3834V26.3833V26.3833V26.3832V26.3832V26.3831V26.383V26.383V26.3829V26.3829V26.3828V26.3827V26.3826V26.3825V26.3825V26.3824V26.3823V26.3822V26.3821V26.3821V26.382V26.3819V26.3818V26.3817V26.3816V26.3815V26.3814V26.3813V26.3813V26.3812V26.3811V26.3811V26.381V26.3809V26.3809V26.3808V26.3807V26.3806V26.3805V26.3804V26.3803V26.3802V26.3801V26.38V26.3798V26.3797V26.3796V26.3795V26.3794V26.3792V26.3791V26.379V26.3788V26.3787V26.3785V26.3784V26.3782V26.378V26.3779V26.3777V26.3776V26.3774V26.3772C35.9788 26.2547 35.9754 26.1306 35.9754 26.0064C35.9754 25.8762 35.9787 25.7493 35.982 25.6223ZM65.8705 26.378C65.8738 26.2542 65.877 26.1303 65.877 26.0065C65.877 25.7588 65.877 25.498 65.864 25.2504L76.6436 24.9375V27.0624L65.864 26.7495C65.864 26.6257 65.8673 26.5018 65.8705 26.378ZM48.3194 11.2754C48.4432 11.2558 48.5703 11.2363 48.6974 11.2167C48.8245 11.1972 48.9516 11.1776 49.0754 11.1581L47.5112 0.494302L45.4126 0.859321L47.5894 11.4188L47.6993 11.3955L47.6994 11.3955C47.9073 11.3514 48.1086 11.3087 48.3194 11.2754ZM52.7773 40.8289C53.0119 40.8028 53.2596 40.7637 53.5072 40.7246C53.7679 40.6855 54.0156 40.6333 54.2632 40.5681L56.44 51.1276L54.3414 51.4926L52.7773 40.8289ZM36.1516 28.2226L36.1516 28.2223C36.1321 28.0954 36.1125 27.9684 36.093 27.8446L25.4307 29.409L25.7956 31.5079L36.3537 29.3308C36.3016 29.0961 36.2494 28.8484 36.2103 28.6008C36.1908 28.4769 36.1712 28.3497 36.1516 28.2226ZM65.6554 23.4127L65.6553 23.4122C65.6379 23.3297 65.622 23.2471 65.6061 23.1645L65.606 23.1642C65.5742 22.9992 65.5423 22.8342 65.4989 22.6691L76.0569 20.4921L76.4219 22.5779L65.7596 24.1423C65.7335 23.9078 65.6945 23.6603 65.6554 23.4128L65.6554 23.4127ZM45.8035 11.9533C46.0381 11.862 46.2858 11.7838 46.5334 11.7056L43.1314 1.472L41.1371 2.20204L45.1127 12.227C45.3342 12.1227 45.5689 12.0315 45.8035 11.9533ZM55.3316 40.2812C55.5663 40.216 55.8009 40.1378 56.0355 40.0466C56.2701 39.9684 56.5048 39.8771 56.7524 39.7598L60.728 49.7847L58.7337 50.5148L55.3316 40.2812ZM36.8883 31.1167C36.797 30.8821 36.7188 30.6344 36.6406 30.3867L26.4084 33.7762L27.1384 35.7707L37.162 31.7946C37.0577 31.586 36.9665 31.3514 36.8883 31.1167ZM65.2122 21.6002C65.147 21.3655 65.0688 21.1309 64.9776 20.8962C64.8994 20.6485 64.7951 20.4139 64.6908 20.1792L74.7144 16.2031L75.4444 18.1977L65.2122 21.6002ZM43.4445 13.0614C43.6661 12.931 43.8877 12.8137 44.1223 12.6964L38.9997 3.20586L37.1488 4.26181L42.8058 13.4394C43.0144 13.3091 43.2229 13.1787 43.4445 13.0614ZM57.7434 39.3036C57.965 39.1993 58.1735 39.082 58.3951 38.9516C58.6167 38.8212 58.8383 38.6909 59.0469 38.5475L64.7039 47.7381L62.866 48.7941L57.7434 39.3036ZM37.9831 33.4893C37.8528 33.2677 37.7355 33.0461 37.6182 32.8115L28.129 37.9348L29.1848 39.7729L38.3611 34.1151C38.2438 33.9065 38.1135 33.6979 37.9831 33.4893ZM64.2347 19.1885C64.1304 18.9669 64.0131 18.7583 63.8827 18.5367C63.7524 18.315 63.622 18.0934 63.4787 17.8848L72.655 12.227L73.7239 14.0652L64.2347 19.1885ZM41.3067 14.5475C41.5022 14.378 41.6978 14.2216 41.9063 14.0651L35.2196 5.60451L33.5902 6.97334L40.7593 15.0298C40.8407 14.9547 40.9281 14.8795 41.0172 14.8029C41.1136 14.7201 41.2119 14.6355 41.3067 14.5475ZM59.9459 37.9348L60.5324 37.4655C60.7279 37.296 60.9235 37.1265 61.1059 36.9701L68.275 45.0266L66.6457 46.3954L59.9459 37.9348ZM39.4818 35.6143C39.3124 35.4188 39.1559 35.2232 38.9995 35.0147L30.5401 41.7023L31.9087 43.3319L39.9641 36.1619L39.9461 36.1424C39.7948 35.9785 39.6323 35.8024 39.4818 35.6143ZM62.3834 16.3988L62.3834 16.3987C62.2269 16.2031 62.0575 16.0076 61.875 15.8251L69.9304 8.65508L71.299 10.2846L62.8396 16.9853C62.6967 16.7904 62.5408 16.5955 62.3849 16.4007L62.3848 16.4005L62.3847 16.4004L62.3846 16.4003L62.3846 16.4002L62.3845 16.4001L62.3844 16.4L62.3843 16.3999L62.3842 16.3998L62.3842 16.3997L62.3841 16.3996L62.384 16.3995L62.3839 16.3994L62.3838 16.3993L62.3838 16.3992L62.3837 16.3991L62.3836 16.399L62.3835 16.3989L62.3834 16.3988ZM39.4689 16.3987C39.6384 16.2032 39.8078 16.0076 39.9773 15.8251L31.9219 8.65508L30.5533 10.2846L39.0127 16.9723C39.1561 16.7768 39.3125 16.5812 39.4689 16.3987ZM61.8751 36.1746C62.0445 35.9921 62.2139 35.8097 62.3703 35.6142C62.5398 35.4186 62.6962 35.2231 62.8396 35.0276L71.299 41.7152L69.9304 43.3448L61.875 36.1748L61.8751 36.1746ZM41.3328 37.4654C41.1373 37.296 40.9418 37.1265 40.7593 36.957L33.5902 45.0135L35.2196 46.3823L41.9063 37.9217C41.7108 37.7783 41.5153 37.6219 41.3328 37.4654ZM61.1061 15.0429C60.9236 14.8734 60.7411 14.7039 60.5456 14.5475L59.9591 14.0782L66.6458 5.61757L68.2752 6.98639L61.1061 15.0429ZM37.9826 18.5367L37.9827 18.5365C38.113 18.315 38.2434 18.0934 38.3867 17.8848L29.1973 12.227L28.1415 14.0652L37.6307 19.1885C37.735 18.9669 37.8523 18.7452 37.9826 18.5367ZM63.8033 33.6027L63.8697 33.4894C63.9999 33.268 64.1171 33.0337 64.2213 32.8253L64.2213 32.8252L64.2216 32.8246L64.2216 32.8245L73.7108 37.9478L72.655 39.7859L63.4787 34.1281C63.5974 33.9555 63.6982 33.7828 63.8033 33.6027ZM43.4707 38.9516C43.2491 38.8212 43.0275 38.6909 42.819 38.5475L37.162 47.7381L38.9999 48.8071L44.1225 39.3166C43.9009 39.1993 43.6793 39.082 43.4707 38.9516ZM58.7405 13.2439L58.7404 13.2438C58.6329 13.1786 58.5254 13.1135 58.4212 13.0483C58.3104 12.9897 58.1964 12.9277 58.0823 12.8658C57.9682 12.8039 57.8542 12.742 57.7434 12.6833L62.879 3.20586L64.7169 4.26181L59.0599 13.4394C58.9557 13.3743 58.8482 13.3091 58.7407 13.244L58.7405 13.2439ZM36.8751 20.8962C36.9207 20.7789 36.9663 20.6583 37.0119 20.5377C37.0576 20.4171 37.1032 20.2965 37.1488 20.1792L27.1252 16.2031L26.3952 18.1977L36.6274 21.6002C36.7187 21.3655 36.7969 21.1309 36.8751 20.8962ZM64.704 31.8077C64.7952 31.5861 64.8865 31.3514 64.9777 31.1167C65.0508 30.9287 65.1156 30.7323 65.1787 30.541C65.1943 30.4935 65.2098 30.4464 65.2254 30.3997L75.4576 33.7892L74.7276 35.7838L64.704 31.8077ZM45.8296 40.0466C45.5819 39.9553 45.3473 39.8641 45.1127 39.7728L41.1371 49.7978L43.1314 50.5278L46.5334 40.2943L46.5332 40.2942C46.2987 40.216 46.0641 40.1378 45.8296 40.0466ZM56.7526 12.227C56.531 12.1358 56.2964 12.0445 56.0618 11.9533C55.9138 11.8988 55.7659 11.8489 55.6235 11.8009L55.6235 11.8009L55.6231 11.8008C55.5273 11.7685 55.434 11.737 55.3449 11.7056L58.7339 1.472L60.7282 2.20204L56.7526 12.227ZM36.2105 23.4122C36.2496 23.1645 36.3017 22.9038 36.3669 22.6691L25.8089 20.4921L25.4439 22.5779L36.1062 24.1423L36.1103 24.1052C36.1351 23.8816 36.1611 23.6469 36.2105 23.4122ZM65.5121 29.3308C65.5642 29.0962 65.6164 28.8485 65.6555 28.6008L65.7728 27.8577L76.4351 29.4221L76.0702 31.5079L65.5121 29.3308ZM47.6026 40.5681L45.4258 51.1276L47.5244 51.4926L49.0886 40.8289C48.8409 40.8028 48.5932 40.7637 48.3586 40.7115C48.0979 40.6855 47.8503 40.6333 47.6026 40.5681ZM56.4402 0.859321L54.2634 11.4188C54.0288 11.3667 53.7811 11.3145 53.5465 11.2884C53.2988 11.2363 53.0381 11.1972 52.7905 11.1711L54.3546 0.494302L56.4402 0.859321ZM16.0326 23.0993C16.0326 25.3285 16.0587 27.5578 16.0978 29.7609L16.0326 29.787C14.5988 27.7794 13.191 25.837 11.6921 23.8294L4.77067 14.5214H0V37.5958H4.87495V29.0178C4.87495 26.7886 4.84888 24.5594 4.80978 22.3563L4.87495 22.3302C6.30876 24.3378 7.7165 26.2802 9.21548 28.2878L16.1369 37.5958H20.9206V14.5214H16.0326V23.0993ZM88.2329 23.4375C88.6987 23.5745 89.1968 23.721 89.7174 23.8946C93.1976 25.0418 96 26.6713 96 30.7517C96 35.2493 92.585 37.9608 87.6188 37.9608C85.3247 37.9608 82.5483 37.3872 80.4498 36.3313V31.2341C82.9394 32.8245 85.8721 33.5285 87.684 33.5285C89.5349 33.5285 90.9035 32.7984 90.9035 31.0776C90.9035 29.3035 89.4045 28.8669 87.2036 28.2259C86.7522 28.0944 86.2714 27.9544 85.7679 27.7924C82.5744 26.7365 79.7068 25.1721 79.7068 21.1569C79.7068 16.8419 82.9524 14.1694 87.8013 14.1694C90.0563 14.1694 92.8326 14.743 94.84 15.825V20.831C92.3895 19.3058 89.5479 18.6018 87.7622 18.6018C86.0416 18.6018 84.8033 19.2406 84.8033 20.7658C84.8033 22.4288 86.2145 22.8439 88.2329 23.4375Z" fill="black"/>
</svg>
